<svg width="38" height="38" viewBox="0 0 38 38" fill="none" xmlns="http://www.w3.org/2000/svg">
<rect width="38" height="38" />
<path fill-rule="evenodd" clip-rule="evenodd" d="M9.729 24.3245C9.7944 24.9808 10.2254 25.5839 10.9004 25.8526L14.4347 27.2584C14.6725 27.3531 14.9188 27.3976 15.1618 27.3976C15.9133 27.3976 16.6296 26.9696 16.9344 26.2643L17.5008 24.9507C17.9854 25.7007 18.9838 26.0288 19.8593 25.6806L21.1845 25.1535L21.9167 26.8506C22.0177 27.0849 22.2974 27.1961 22.5414 27.0991C22.7854 27.0021 22.9012 26.7333 22.8001 26.499L22.0682 24.8019L23.3935 24.2748C24.2692 23.9264 24.7338 23.0158 24.5234 22.1565L25.8916 22.7008C26.1295 22.7954 26.3758 22.84 26.6188 22.84C27.3701 22.84 28.0866 22.412 28.3912 21.7065L29.8551 18.3123C30.2577 17.3789 29.7916 16.2989 28.8199 15.9121L20.4155 12.5686L20.0371 11.6911C19.7553 11.0376 19.1198 10.6224 18.4305 10.5644L18.4869 9.41189C18.4992 9.15862 18.2954 8.94351 18.0317 8.93167C17.7678 8.9197 17.544 9.11546 17.5315 9.36886L17.4652 10.725L14.0755 12.074L13.0292 11.1599C12.8338 10.9892 12.5313 11.0029 12.3536 11.1906C12.1759 11.3783 12.1902 11.6687 12.3855 11.8394L13.2743 12.6159C12.8297 13.1248 12.6862 13.8498 12.9679 14.5029L13.3464 15.3808L9.86513 23.4519C9.79124 23.6233 9.74661 23.7996 9.729 23.9757L9.729 24.3245H9.729V24.3245Z" fill="#2B2B2B"/>
<path fill-rule="evenodd" clip-rule="evenodd" d="M17.8776 23.4861L16.7794 20.9402L22.0813 18.8315L23.1793 21.3768L17.8776 23.4861Z" fill="#FFB50D"/>
<path fill-rule="evenodd" clip-rule="evenodd" d="M21.7148 17.9826L16.4131 20.0919L15.3151 17.546L20.6168 15.4368L21.7148 17.9826V17.9826Z" fill="#FFB50D"/>
<path fill-rule="evenodd" clip-rule="evenodd" d="M20.2513 14.5883L14.9495 16.6976L13.8514 14.1517L19.1531 12.0425L20.2513 14.5883V14.5883Z" fill="#FFB50D"/>
<path fill-rule="evenodd" clip-rule="evenodd" d="M20.9364 13.77L28.4534 16.7606C28.941 16.9543 29.1732 17.4927 28.971 17.9609L27.5071 21.3552C27.3587 21.6996 27.0099 21.9214 26.6187 21.9214C26.4946 21.9214 26.3728 21.898 26.2578 21.8523L24.0444 20.9717L20.9364 13.77V13.77Z" fill="#A2E6D8"/>
<path fill-rule="evenodd" clip-rule="evenodd" d="M16.9706 23.7793L16.0505 25.9129C15.9022 26.2566 15.5532 26.4791 15.1619 26.4791C15.038 26.4791 14.9168 26.4557 14.8012 26.4101L11.2663 25.0041C11.0325 24.9105 10.8495 24.7338 10.751 24.5059C10.6525 24.278 10.6519 24.0284 10.7488 23.8038C10.7488 23.8038 12.8261 18.9875 13.8647 16.5793C13.924 16.442 16.9706 23.7793 16.9706 23.7793V23.7793Z" fill="#A2E6D8"/>
</svg>
